<?xml version="1.0" encoding="utf-8"?>
<!-- Generator: Adobe Illustrator 15.1.0, SVG Export Plug-In . SVG Version: 6.00 Build 0)  -->
<!DOCTYPE svg PUBLIC "-//W3C//DTD SVG 1.1//EN" "http://www.w3.org/Graphics/SVG/1.1/DTD/svg11.dtd">
<svg version="1.1" id="Layer_2" xmlns="http://www.w3.org/2000/svg" xmlns:xlink="http://www.w3.org/1999/xlink" x="0px" y="0px"
	 width="1400px" height="387.406px" viewBox="0 0 1400 387.406" enable-background="new 0 0 1400 387.406" xml:space="preserve">
<path fill="#FFFFFF" d="M656.25,110.39h209.027V19.647H649.951l0.011,0.009c-12.17,0.171-21.247,1.204-28.68,2.964
	c-7.91,1.872-15.757,3.974-23.513,7.461c-20.037,9.012-36.16,20.654-47.418,37.087c-11.259,16.292-16.886,35.488-16.886,57.591
	c0,3.723-0.502,8.315,0,11.557h92.418C628.22,120.109,640.906,110.39,656.25,110.39z"/>
<path fill="#FFFFFF" d="M861.523,246.5h-88.146c-2.337,14.684-15.025,25.926-30.366,25.926H534.723v90.739h210.314l-0.008-0.006
	c12.166-0.171,21.242-1.201,28.674-2.961c7.914-1.875,15.762-3.977,23.517-7.464c20.035-9.012,36.156-20.654,47.416-37.085
	c11.259-16.291,16.888-35.49,16.888-57.593C861.523,254.334,862.027,250.474,861.523,246.5z"/>
<rect x="887.964" y="19.647" fill="#FFFFFF" width="116.665" height="116.668"/>
<rect x="1101.852" y="19.647" fill="#FFFFFF" width="116.668" height="116.668"/>
<rect x="1101.852" y="246.5" fill="#FFFFFF" width="116.668" height="116.665"/>
<rect x="887.964" y="246.5" fill="#FFFFFF" width="116.665" height="116.665"/>
<path fill="#FFFFFF" d="M512.037,124.759c0-22.103-5.649-41.299-16.951-57.591c-11.301-16.433-27.483-28.075-47.597-37.087
	c-7.785-3.487-15.662-5.589-23.603-7.461c-7.461-1.76-16.573-2.793-28.788-2.964l0.011-0.009H181.482v116.668h72.568h5.697h12.476
	V110.39H390.51c15.344,0,28.03,9.72,30.365,25.926h91.162C512.54,133.074,512.037,128.481,512.037,124.759z"/>
<path fill="#FFFFFF" d="M509.531,246.5h-88.656c-2.335,14.684-15.021,25.926-30.365,25.926H272.223V246.5h-14.984h-5.696h-70.061
	v116.665h211.12l-0.011-0.006c12.214-0.171,21.325-1.201,28.784-2.961c7.944-1.875,15.82-3.977,23.607-7.464
	c20.111-9.012,36.293-20.654,47.598-37.085c11.298-16.291,16.951-35.49,16.951-57.593
	C509.531,254.334,510.037,250.474,509.531,246.5z"/>
<path fill="#FFFFFF" d="M731.32,168.303c-0.7-1.2-1.65-2.038-2.85-2.514c-1.199-0.474-2.721-0.712-4.569-0.712h-2.608v52.937h2.608
	c1.849,0,3.37-0.241,4.569-0.716c1.199-0.476,2.149-1.312,2.85-2.511c0.699-1.198,1.18-2.836,1.441-4.906
	c0.268-2.069,0.398-4.687,0.398-7.854v-20.968c0-3.164-0.131-5.78-0.398-7.851C732.5,171.138,732.02,169.502,731.32,168.303z"/>
<path fill="#FFFFFF" d="M201.755,168.303c-0.698-1.2-1.647-2.038-2.848-2.514c-1.2-0.474-2.724-0.712-4.569-0.712h-2.61v52.937h2.61
	c1.845,0,3.369-0.241,4.569-0.716c1.2-0.476,2.149-1.312,2.848-2.511c0.7-1.198,1.18-2.836,1.445-4.906
	c0.263-2.069,0.395-4.687,0.395-7.854v-20.968c0-3.164-0.132-5.78-0.395-7.851C202.935,171.138,202.455,169.502,201.755,168.303z"/>
<path fill="#FFFFFF" d="M1387.036,149.277v-5.473V17.668c0-10.541-10.163-17.465-20.706-17.465h-8.459h-74.539h-11.698
	c-10.542,0-17.466,6.924-17.466,17.465v126.135v5.475H145.834v-5.475V17.668c0-10.541-6.926-17.465-17.467-17.465h-11.701H42.129
	h-8.459c-10.541,0-20.707,6.924-20.707,17.465v126.137v5.473H0v84.258h12.963v1.376v126.996c0,10.537,10.166,20.702,20.707,20.702
	h8.459h74.537h11.701c10.541,0,17.467-10.165,17.467-20.702V235.415v-1.88h1108.334v1.88v126.492
	c0,10.537,6.924,20.702,17.466,20.702h11.698h74.539h8.459c10.543,0,20.706-10.165,20.706-20.702V234.911v-1.376H1400v-84.258
	H1387.036z M42.129,289.799v4.021v75.828h-8.459c-3.376,0-7.744-4.369-7.744-7.741V246.523c4.084,4.748,7.603,10.172,10.33,16.235
	c2.051,4.563,4.064,8.951,5.168,13.608C42.31,280.116,42.129,285.988,42.129,289.799z M41.731,102.353
	c-1.102,4.657-3.609,9.04-5.663,13.607c-2.708,6.019-6.143,11.409-10.143,16.136V17.668c0-3.375,4.367-4.502,7.744-4.502h8.459V84.9
	v4.015C42.129,92.732,42.617,98.604,41.731,102.353z M132.871,361.907c0,3.372-1.127,7.741-4.504,7.741h-11.701v-75.329v-4.019
	c0-3.811,1.127-9.686,2.021-13.439c1.101-4.652,2.797-9.039,4.851-13.608c2.354-5.229,5.741-9.963,9.334-14.217V361.907z
	 M132.871,129.726c-3.319-4.142-6.437-8.723-8.704-13.77c-2.058-4.564-4.877-8.948-5.979-13.606
	c-0.889-3.748-1.522-9.62-1.522-13.437v-4.017v-71.73h11.701c3.377,0,4.504,1.127,4.504,4.502V129.726z M214.316,201.197
	c0,3.902-0.323,7.212-0.968,9.928c-0.647,2.72-1.525,4.96-2.632,6.73c-1.108,1.766-2.394,3.138-3.856,4.134
	c-1.466,0.985-3.021,1.72-4.669,2.195c-1.649,0.475-3.336,0.753-5.063,0.849c-1.729,0.094-3.398,0.139-5.006,0.139h-10.641v-67.57
	h10.641c1.608,0,3.276,0.044,5.006,0.141c1.726,0.091,3.414,0.372,5.063,0.848c1.647,0.474,3.203,1.208,4.669,2.196
	c1.462,0.991,2.748,2.374,3.856,4.155c1.107,1.778,1.984,4.02,2.632,6.725c0.645,2.704,0.968,6.007,0.968,9.91V201.197z
	 M265.546,204.402c0,3.296-0.264,6.118-0.791,8.464c-0.528,2.349-1.227,4.313-2.096,5.895c-0.871,1.581-1.867,2.836-2.988,3.76
	c-1.12,0.924-2.28,1.626-3.482,2.112c-1.199,0.494-2.393,0.799-3.579,0.932c-1.187,0.134-2.27,0.203-3.244,0.203
	c-0.976,0-2.051-0.069-3.225-0.203c-1.173-0.133-2.354-0.438-3.541-0.932c-1.187-0.486-2.334-1.188-3.441-2.112
	c-1.108-0.924-2.097-2.179-2.968-3.76s-1.561-3.541-2.078-5.873c-0.513-2.335-0.771-5.162-0.771-8.485v-46.801h10.325v49.53
	c0,2.11,0.105,3.864,0.316,5.259c0.211,1.398,0.548,2.515,1.01,3.345c0.46,0.83,1.055,1.426,1.78,1.778
	c0.726,0.36,1.588,0.537,2.591,0.537c1.001,0,1.88-0.177,2.63-0.537c0.753-0.353,1.371-0.948,1.861-1.778
	c0.487-0.83,0.856-1.946,1.107-3.345c0.25-1.395,0.375-3.148,0.375-5.259v-49.53h10.206V204.402z M312.425,225.172h-25.437v-67.57
	h25.04v8.071h-14.795v20.213h11.434v8.071h-11.434V217.1h15.191V225.172z M354.16,225.172h-24.21v-67.57h10.246V217.1h13.964
	V225.172z M394.986,225.172h-24.212v-67.57h10.246V217.1h13.966V225.172z M421.847,225.172h-10.246v-67.57h10.246V225.172z
	 M476.559,225.172h-8.388l-16.298-44.032h-0.316c0.078,1.187,0.183,2.474,0.316,3.856c0.131,1.386,0.249,3.014,0.356,4.887
	c0.104,1.873,0.197,4.055,0.276,6.548c0.078,2.491,0.119,5.454,0.119,8.881v19.86h-9.1v-67.57h8.308l16.378,45.217h0.237
	c-0.078-1.051-0.186-2.229-0.316-3.52c-0.133-1.291-0.252-2.763-0.356-4.412c-0.105-1.648-0.197-3.513-0.276-5.6
	c-0.08-2.081-0.118-4.43-0.118-7.041v-24.645h9.178V225.172z M530.202,225.172h-6.806l-1.106-6.411
	c-1.294,2.505-2.776,4.31-4.452,5.399c-1.674,1.095-3.658,1.645-5.953,1.645c-0.79,0-1.716-0.088-2.769-0.259
	c-1.056-0.171-2.144-0.531-3.264-1.089c-1.121-0.551-2.223-1.336-3.303-2.355c-1.083-1.012-2.051-2.353-2.909-4.032
	c-0.856-1.675-1.549-3.733-2.076-6.173c-0.529-2.437-0.791-5.344-0.791-8.721V179.24c0-3.403,0.276-6.309,0.831-8.722
	c0.554-2.412,1.291-4.443,2.215-6.093c0.923-1.648,1.983-2.959,3.186-3.938c1.199-0.975,2.444-1.718,3.737-2.233
	c1.291-0.513,2.571-0.852,3.837-1.011c1.267-0.157,2.439-0.236,3.521-0.236c2.742,0,5.058,0.377,6.944,1.13
	c1.886,0.75,3.415,1.778,4.589,3.085c1.172,1.305,2.016,2.827,2.531,4.566c0.513,1.741,0.771,3.589,0.771,5.539
	c0,1.453-0.085,2.791-0.259,4.017c-0.171,1.227-0.401,2.578-0.691,4.054h-8.188v-3.203c0-7.411-1.992-11.118-5.974-11.118
	c-1.083,0-2.018,0.188-2.809,0.555c-0.791,0.369-1.45,0.997-1.978,1.88c-0.529,0.882-0.916,2.051-1.168,3.5
	c-0.25,1.453-0.376,3.26-0.376,5.421v30.619c0,2.11,0.126,3.865,0.376,5.263c0.252,1.396,0.633,2.516,1.149,3.362
	c0.513,0.844,1.159,1.441,1.936,1.8c0.778,0.353,1.708,0.537,2.791,0.537c1.132,0,2.109-0.297,2.927-0.896
	c0.816-0.59,1.489-1.404,2.017-2.43c0.527-1.03,0.918-2.244,1.169-3.64c0.249-1.399,0.375-2.914,0.375-4.55v-8.821h-5.262v-6.728
	h15.231V225.172z M607.38,216.705c-0.753,1.922-1.828,3.562-3.226,4.902c-1.398,1.349-3.086,2.382-5.063,3.108
	c-1.979,0.721-4.208,1.089-6.687,1.089c-3.06,0-5.597-0.411-7.615-1.228c-2.016-0.817-3.625-1.899-4.826-3.242
	c-1.199-1.346-2.043-2.879-2.532-4.59c-0.487-1.715-0.731-3.469-0.731-5.262c0-1.45,0.086-2.788,0.257-4.017
	c0.173-1.225,0.43-2.552,0.772-3.975h7.951v3.284c0,1.817,0.112,3.428,0.338,4.824c0.223,1.397,0.592,2.578,1.106,3.539
	c0.513,0.967,1.2,1.69,2.058,2.18c0.855,0.485,1.904,0.731,3.145,0.731c1.95,0,3.441-0.537,4.47-1.603
	c1.029-1.07,1.544-2.633,1.544-4.69c0-1.053-0.074-2.022-0.218-2.905c-0.146-0.882-0.396-1.76-0.753-2.633
	c-0.354-0.868-0.838-1.785-1.443-2.748c-0.607-0.965-1.385-2.037-2.334-3.224l-10.682-12.7c-1.898-2.425-3.361-4.87-4.391-7.337
	c-1.028-2.469-1.542-5.098-1.542-7.892c0-2.242,0.35-4.298,1.049-6.173c0.697-1.873,1.705-3.487,3.025-4.845
	c1.318-1.36,2.945-2.414,4.886-3.164c1.938-0.753,4.134-1.13,6.586-1.13c2.98,0,5.466,0.423,7.457,1.266
	c1.992,0.846,3.581,1.952,4.768,3.323c1.188,1.372,2.024,2.908,2.512,4.61c0.488,1.699,0.731,3.408,0.731,5.121
	c0,1.453-0.112,2.791-0.337,4.017c-0.223,1.227-0.48,2.578-0.77,4.054h-7.912v-3.203c0-3.585-0.515-6.335-1.544-8.247
	c-1.028-1.915-2.703-2.871-5.024-2.871c-1.925,0-3.361,0.536-4.311,1.605c-0.949,1.066-1.425,2.496-1.425,4.291
	c0,0.949,0.073,1.808,0.219,2.57c0.144,0.765,0.354,1.471,0.633,2.117c0.275,0.645,0.611,1.272,1.009,1.88
	c0.395,0.607,0.842,1.24,1.344,1.898l11.908,14.399c2.162,2.822,3.822,5.531,4.984,8.131c1.16,2.599,1.741,5.345,1.741,8.247
	C608.507,212.615,608.13,214.779,607.38,216.705z M651.468,225.172h-24.21v-67.57h10.245V217.1h13.965V225.172z M693.521,225.172
	h-25.438v-67.57h25.041v8.071h-14.795v20.213h11.433v8.071h-11.433V217.1h15.191V225.172z M743.881,201.197
	c0,3.902-0.323,7.212-0.97,9.928c-0.648,2.72-1.521,4.96-2.63,6.73c-1.108,1.766-2.396,3.138-3.858,4.134
	c-1.464,0.985-3.022,1.72-4.668,2.195c-1.647,0.475-3.338,0.753-5.063,0.849c-1.728,0.094-3.396,0.139-5.007,0.139h-10.642v-67.57
	h10.642c1.61,0,3.279,0.044,5.007,0.141c1.725,0.091,3.415,0.372,5.063,0.848c1.646,0.474,3.204,1.208,4.668,2.196
	c1.463,0.991,2.75,2.374,3.858,4.155c1.108,1.778,1.981,4.02,2.63,6.725c0.646,2.704,0.97,6.007,0.97,9.91V201.197z M795.11,225.172
	h-6.804l-1.108-6.411c-1.29,2.505-2.774,4.31-4.448,5.399c-1.678,1.095-3.661,1.645-5.952,1.645c-0.794,0-1.718-0.088-2.774-0.259
	c-1.053-0.171-2.142-0.531-3.261-1.089c-1.122-0.551-2.222-1.336-3.304-2.355c-1.081-1.012-2.053-2.353-2.907-4.032
	c-0.857-1.675-1.552-3.733-2.078-6.173c-0.525-2.437-0.793-5.344-0.793-8.721V179.24c0-3.403,0.28-6.309,0.833-8.722
	c0.553-2.412,1.293-4.443,2.217-6.093c0.924-1.648,1.984-2.959,3.183-3.938c1.199-0.975,2.446-1.718,3.739-2.233
	c1.292-0.513,2.571-0.852,3.837-1.011c1.266-0.157,2.44-0.236,3.521-0.236c2.743,0,5.056,0.377,6.94,1.13
	c1.888,0.75,3.415,1.778,4.59,3.085c1.176,1.305,2.02,2.827,2.532,4.566c0.515,1.741,0.771,3.589,0.771,5.539
	c0,1.453-0.086,2.791-0.257,4.017c-0.173,1.227-0.4,2.578-0.691,4.054h-8.187v-3.203c0-7.411-1.995-11.118-5.977-11.118
	c-1.081,0-2.019,0.188-2.81,0.555c-0.793,0.369-1.449,0.997-1.976,1.88c-0.528,0.882-0.919,2.051-1.167,3.5
	c-0.254,1.453-0.376,3.26-0.376,5.421v30.619c0,2.11,0.122,3.865,0.376,5.263c0.248,1.396,0.633,2.516,1.146,3.362
	c0.516,0.844,1.162,1.441,1.938,1.8c0.777,0.353,1.707,0.537,2.788,0.537c1.135,0,2.112-0.297,2.93-0.896
	c0.814-0.59,1.489-1.404,2.019-2.43c0.525-1.03,0.913-2.244,1.164-3.64c0.251-1.399,0.377-2.914,0.377-4.55v-8.821h-5.264v-6.728
	h15.231V225.172z M840.131,225.172h-25.439v-67.57h25.039v8.071h-14.79v20.213h11.431v8.071H824.94V217.1h15.19V225.172z
	 M890.293,225.172h-10.249v-31.215h-12.146v31.215h-10.243v-67.57h10.243v28.284h12.146v-28.284h10.249V225.172z M933.412,225.172
	l-1.858-12.106h-12.342l-1.781,12.106h-10.403l12.46-67.57h11.789l12.5,67.57H933.412z M1005.924,225.172h-9.572v-22.354
	c0-3.425,0.031-6.723,0.096-9.892c0.066-3.164,0.152-6.069,0.257-8.721c0.109-2.649,0.227-4.991,0.357-7.022
	c0.134-2.03,0.251-3.64,0.357-4.827h-0.753l-10.205,44.11h-6.489l-10.283-44.11h-0.75c0.104,1.188,0.222,2.797,0.353,4.827
	c0.133,2.031,0.251,4.373,0.354,7.022c0.107,2.651,0.192,5.557,0.259,8.721c0.064,3.169,0.1,6.467,0.1,9.892v22.354h-9.573v-67.57
	h13.37l6.488,26.147c0.687,2.903,1.227,5.665,1.624,8.289c0.393,2.628,0.774,5.099,1.146,7.418h0.315
	c0.371-2.319,0.755-4.79,1.147-7.418c0.398-2.624,0.935-5.386,1.624-8.289l6.687-26.147h13.092V225.172z M1073.096,225.172h-9.573
	v-22.354c0-3.425,0.032-6.723,0.099-9.892c0.066-3.164,0.152-6.069,0.259-8.721c0.104-2.649,0.222-4.991,0.355-7.022
	c0.134-2.03,0.251-3.64,0.355-4.827h-0.751l-10.205,44.11h-6.489l-10.286-44.11h-0.753c0.106,1.188,0.225,2.797,0.358,4.827
	c0.133,2.031,0.25,4.373,0.357,7.022c0.104,2.651,0.189,5.557,0.256,8.721c0.064,3.169,0.1,6.467,0.1,9.892v22.354h-9.576v-67.57
	h13.373l6.486,26.147c0.688,2.903,1.228,5.665,1.62,8.289c0.401,2.628,0.78,5.099,1.151,7.418h0.314
	c0.372-2.319,0.751-4.79,1.148-7.418c0.393-2.624,0.935-5.386,1.621-8.289l6.684-26.147h13.096V225.172z M1120.215,225.172h-25.439
	v-67.57h25.039v8.071h-14.791v20.213h11.432v8.071h-11.432V217.1h15.191V225.172z M1160.604,225.172l-8.983-25.278h-3.834v25.278
	h-10.049v-67.57h11.116c1.269,0,2.657,0.055,4.174,0.159c1.515,0.104,3.031,0.36,4.551,0.771c1.517,0.409,2.978,1.023,4.39,1.839
	c1.41,0.817,2.665,1.938,3.76,3.361c1.093,1.424,1.971,3.213,2.63,5.361c0.657,2.149,0.985,4.753,0.985,7.814v1.698
	c0,5.143-0.736,9.33-2.213,12.561c-1.478,3.232-3.653,5.562-6.526,6.986l10.839,27.019H1160.604z M1217.393,216.705
	c-0.753,1.922-1.826,3.562-3.226,4.902c-1.399,1.349-3.085,2.382-5.063,3.108c-1.979,0.721-4.205,1.089-6.687,1.089
	c-3.058,0-5.597-0.411-7.615-1.228c-2.017-0.817-3.626-1.899-4.825-3.242c-1.201-1.346-2.046-2.879-2.534-4.59
	c-0.486-1.715-0.729-3.469-0.729-5.262c0-1.45,0.086-2.788,0.257-4.017c0.171-1.225,0.43-2.552,0.771-3.975h7.952v3.284
	c0,1.817,0.112,3.428,0.337,4.824c0.222,1.397,0.59,2.578,1.108,3.539c0.512,0.967,1.198,1.69,2.056,2.18
	c0.854,0.485,1.904,0.731,3.146,0.731c1.949,0,3.439-0.537,4.471-1.603c1.027-1.07,1.543-2.633,1.543-4.69
	c0-1.053-0.077-2.022-0.219-2.905c-0.145-0.882-0.396-1.76-0.753-2.633c-0.355-0.868-0.836-1.785-1.442-2.748
	c-0.608-0.965-1.383-2.037-2.334-3.224l-10.684-12.7c-1.898-2.425-3.362-4.87-4.39-7.337c-1.028-2.469-1.541-5.098-1.541-7.892
	c0-2.242,0.347-4.298,1.047-6.173c0.696-1.873,1.706-3.487,3.025-4.845c1.319-1.36,2.948-2.414,4.887-3.164
	c1.938-0.753,4.134-1.13,6.587-1.13c2.98,0,5.464,0.423,7.456,1.266c1.989,0.846,3.581,1.952,4.767,3.323
	c1.188,1.372,2.023,2.908,2.513,4.61c0.485,1.699,0.734,3.408,0.734,5.121c0,1.453-0.115,2.791-0.34,4.017
	c-0.224,1.227-0.48,2.578-0.769,4.054h-7.912v-3.203c0-3.585-0.516-6.335-1.543-8.247c-1.031-1.915-2.705-2.871-5.026-2.871
	c-1.925,0-3.361,0.536-4.313,1.605c-0.947,1.066-1.423,2.496-1.423,4.291c0,0.949,0.072,1.808,0.219,2.57
	c0.142,0.765,0.353,1.471,0.633,2.117c0.275,0.645,0.611,1.272,1.01,1.88c0.393,0.607,0.841,1.24,1.34,1.898l11.91,14.399
	c2.163,2.822,3.823,5.531,4.985,8.131c1.161,2.599,1.741,5.345,1.741,8.247C1218.52,212.615,1218.143,214.779,1217.393,216.705z
	 M1283.332,294.319v75.329h-11.698c-3.378,0-4.505-4.369-4.505-7.741V249.036c3.592,4.254,6.98,8.988,9.333,14.217
	c2.054,4.569,3.752,8.956,4.852,13.608c0.892,3.754,2.019,9.629,2.019,13.439V294.319z M1283.332,84.896v4.017
	c0,3.816-0.633,9.688-1.521,13.437c-1.101,4.658-3.92,9.042-5.979,13.606c-2.268,5.047-5.387,9.628-8.703,13.77V17.668
	c0-3.375,1.127-4.502,4.505-4.502h11.698V84.896z M1374.074,361.907c0,3.372-4.369,7.741-7.744,7.741h-8.459V293.82v-4.021
	c0-3.811-0.182-9.683,0.705-13.432c1.105-4.657,3.118-9.045,5.169-13.608c2.727-6.063,6.243-11.487,10.329-16.235V361.907z
	 M1374.074,132.096c-4-4.727-7.437-10.117-10.145-16.136c-2.054-4.567-4.559-8.95-5.661-13.607
	c-0.887-3.749-0.397-9.62-0.397-13.438V84.9V13.166h8.459c3.375,0,7.744,1.127,7.744,4.502V132.096z"/>
<polygon fill="#FFFFFF" points="925.183,171.685 920.395,205.352 930.365,205.352 925.618,171.685 "/>
<path fill="#FFFFFF" d="M1156.982,167.492c-0.75-0.816-1.746-1.424-2.988-1.819c-1.236-0.396-2.793-0.596-4.665-0.596h-1.543v27.417
	h1.543c1.792,0,3.309-0.2,4.548-0.595c1.241-0.396,2.24-1.061,3.007-1.998c0.767-0.936,1.319-2.173,1.661-3.718
	c0.342-1.541,0.513-3.446,0.513-5.716v-5.342c0-1.741-0.158-3.245-0.473-4.511C1158.267,169.35,1157.735,168.309,1156.982,167.492z"
	/>
</svg>
